<?xml version="1.0" encoding="iso-8859-1"?>
<!-- Generator: Adobe Illustrator 19.0.0, SVG Export Plug-In . SVG Version: 6.00 Build 0)  -->
<svg version="1.1" id="Layer_1" xmlns="http://www.w3.org/2000/svg" xmlns:xlink="http://www.w3.org/1999/xlink" x="0px" y="0px"
	 viewBox="0 0 512 512" style="enable-background:new 0 0 512 512;" xml:space="preserve">
<g>
	<g>
		<path d="M135.704,89.357v333.286h33.623v-69.488h-0.001c0-28.343,23.059-51.401,51.401-51.401h70.545
			c28.343,0,51.401,23.058,51.401,51.401v69.488h33.623V89.357H135.704z M256,284.435c-30.307,0-54.964-24.656-54.964-54.963
			c0.001-30.307,24.657-54.963,54.964-54.963s54.963,24.656,54.963,54.963S286.307,284.435,256,284.435z"/>
	</g>
</g>
<g>
	<g>
		<path d="M465.653,48.53V0h-48.53c0,12.196-9.886,22.082-22.082,22.082c-12.196,0-22.082-9.886-22.082-22.082h-48.53
			c0,12.196-9.886,22.082-22.082,22.082c-12.196,0-22.082-9.886-22.082-22.082h-48.53c0,12.196-9.886,22.082-22.082,22.082
			S187.571,12.196,187.571,0h-48.53c0,12.196-9.886,22.082-22.082,22.082c-12.196,0-22.082-9.886-22.082-22.082h-48.53v48.53
			c12.196,0,22.082,9.886,22.082,22.082s-9.886,22.082-22.082,22.082v48.53c12.196,0,22.082,9.886,22.082,22.082
			c0,12.196-9.886,22.082-22.082,22.082v48.53c12.196,0,22.082,9.886,22.082,22.082s-9.886,22.082-22.082,22.082v48.53
			c12.196,0,22.082,9.886,22.082,22.082c0,12.196-9.886,22.082-22.082,22.082v48.53c12.196,0,22.082,9.886,22.082,22.082
			c0,12.195-9.886,22.082-22.082,22.082V512h48.53c0-12.195,9.886-22.082,22.082-22.082c12.195,0,22.082,9.886,22.082,22.082h48.53
			c0-12.195,9.886-22.082,22.082-22.082s22.082,9.886,22.082,22.082h48.53c0-12.195,9.886-22.082,22.082-22.082
			c12.196,0,22.082,9.886,22.082,22.082h48.53c0-12.195,9.886-22.082,22.082-22.082c12.196,0,22.082,9.886,22.082,22.082h48.53
			v-48.53c-12.196,0-22.082-9.886-22.082-22.082c0-12.196,9.886-22.082,22.082-22.082v-48.53c-12.196,0-22.082-9.886-22.082-22.082
			c0-12.196,9.886-22.082,22.082-22.082v-48.53c-12.196,0-22.082-9.886-22.082-22.082c0-12.196,9.886-22.082,22.082-22.082v-48.53
			c-12.196,0-22.082-9.886-22.082-22.082c0-12.196,9.886-22.082,22.082-22.082v-48.53c-12.196,0-22.082-9.886-22.082-22.082
			C443.571,58.417,453.458,48.53,465.653,48.53z M342.674,452.643H169.326h-63.623V59.357h300.593v393.286H342.674z"/>
	</g>
</g>
<g>
</g>
<g>
</g>
<g>
</g>
<g>
</g>
<g>
</g>
<g>
</g>
<g>
</g>
<g>
</g>
<g>
</g>
<g>
</g>
<g>
</g>
<g>
</g>
<g>
</g>
<g>
</g>
<g>
</g>
</svg>
